<?xml version="1.0" encoding="UTF-8" standalone="no"?><!DOCTYPE svg PUBLIC "-//W3C//DTD SVG 1.1//EN" "http://www.w3.org/Graphics/SVG/1.1/DTD/svg11.dtd"><svg width="100%" height="100%" viewBox="0 0 103 106" version="1.1" xmlns="http://www.w3.org/2000/svg" xmlns:xlink="http://www.w3.org/1999/xlink" xml:space="preserve" xmlns:serif="http://www.serif.com/" style="fill-rule:evenodd;clip-rule:evenodd;stroke-linejoin:round;stroke-miterlimit:2;"><path d="M101.458,46.678c0,-26.663 -20.21,-45.22 -49.263,-45.22c-30.104,0 -50.737,20.831 -50.737,51.24c0,31.39 20.085,51.294 51.78,51.294c7.746,0 15.178,-1.105 20.704,-3.01l0,-7.746c-3.864,1.788 -12.167,2.947 -20.579,2.947c-26.294,0 -43.251,-16.894 -43.251,-43.116c0,-25.557 17.263,-43.862 41.283,-43.862c24.578,-0 41.409,15.169 41.409,37.347c0,15.115 -4.978,24.883 -12.724,24.883c-4.421,-0 -6.938,-2.516 -6.938,-6.83l0,-36.044l-9.274,0l0,7.495l-0.988,-0c-2.39,-5.347 -7.917,-8.663 -14.378,-8.663c-12.581,-0 -21.37,10.442 -21.37,25.368c0,15.61 8.6,26.115 21.379,26.115c7.189,-0 12.715,-3.505 15.357,-9.768l0.989,-0c0.728,6.02 6.317,10.316 13.506,10.316c14.127,-0 23.095,-12.716 23.095,-32.737l0,-0.009Zm-64.495,6.326c0,-10.757 4.853,-17.137 13.084,-17.137c8.358,0 13.696,6.632 13.696,17.137c-0,10.505 -5.401,17.2 -13.821,17.2c-8.043,-0 -12.959,-6.515 -12.959,-17.2Z" style="fill-rule:nonzero;stroke:#000;stroke-width:2.92px;"/></svg>