<?xml version="1.0" encoding="UTF-8" standalone="no"?><!DOCTYPE svg PUBLIC "-//W3C//DTD SVG 1.1//EN" "http://www.w3.org/Graphics/SVG/1.1/DTD/svg11.dtd"><svg width="100%" height="100%" viewBox="0 0 100 103" version="1.1" xmlns="http://www.w3.org/2000/svg" xmlns:xlink="http://www.w3.org/1999/xlink" xml:space="preserve" xmlns:serif="http://www.serif.com/" style="fill-rule:evenodd;clip-rule:evenodd;stroke-linejoin:round;stroke-miterlimit:2;"><path d="M100,45.219c0,-26.662 -20.21,-45.219 -49.263,-45.219c-30.104,0 -50.737,20.83 -50.737,51.24c0,31.389 20.084,51.294 51.779,51.294c7.747,0 15.178,-1.105 20.705,-3.01l-0,-7.747c-3.864,1.789 -12.168,2.948 -20.579,2.948c-26.294,0 -43.251,-16.894 -43.251,-43.116c-0,-25.558 17.263,-43.863 41.283,-43.863c24.578,0 41.409,15.169 41.409,37.347c0,15.115 -4.978,24.884 -12.725,24.884c-4.421,-0 -6.937,-2.517 -6.937,-6.83l0,-36.044l-9.274,-0l0,7.494l-0.988,0c-2.391,-5.346 -7.917,-8.662 -14.379,-8.662c-12.58,-0 -21.369,10.442 -21.369,25.368c-0,15.609 8.6,26.114 21.378,26.114c7.19,0 12.716,-3.504 15.358,-9.768l0.989,0c0.728,6.021 6.317,10.316 13.506,10.316c14.127,0 23.095,-12.715 23.095,-32.737l0,-0.009Zm-64.495,6.327c0,-10.757 4.853,-17.137 13.084,-17.137c8.357,-0 13.695,6.632 13.695,17.137c0,10.505 -5.4,17.2 -13.821,17.2c-8.042,-0 -12.958,-6.516 -12.958,-17.2Z" style="fill:#293241;fill-rule:nonzero;"/></svg>