<?xml version="1.0" encoding="UTF-8" standalone="no"?><!DOCTYPE svg PUBLIC "-//W3C//DTD SVG 1.1//EN" "http://www.w3.org/Graphics/SVG/1.1/DTD/svg11.dtd"><svg width="100%" height="100%" viewBox="0 0 205 175" version="1.1" xmlns="http://www.w3.org/2000/svg" xmlns:xlink="http://www.w3.org/1999/xlink" xml:space="preserve" xmlns:serif="http://www.serif.com/" style="fill-rule:evenodd;clip-rule:evenodd;stroke-linecap:round;stroke-linejoin:round;stroke-miterlimit:2.613;"><path d="M31.967,124.979l0,-82.417c0,-3.896 3.158,-7.054 7.054,-7.054l126.471,-0c3.896,-0 7.05,3.158 7.05,7.054l0,82.417c0,3.896 -3.154,7.054 -7.05,7.054l-126.471,-0c-3.896,-0 -7.054,-3.158 -7.054,-7.054Z" style="fill:none;fill-rule:nonzero;stroke:#fff;stroke-width:6.25px;"/><path d="M66.962,79.663l5.708,-0c0.421,-0 0.763,-0.346 0.763,-0.763l-0,-7.358l8.862,0c0.417,0 0.759,-0.346 0.759,-0.762l-0,-5.125c-0,-0.421 -0.342,-0.767 -0.759,-0.767l-8.862,-0l-0,-3.883l11.462,-0c0.417,-0 0.759,-0.346 0.759,-0.763l-0,-5.125c-0,-0.421 -0.342,-0.767 -0.759,-0.767l-17.933,0c-0.421,0 -0.762,0.346 -0.762,0.767l-0,23.783c-0,0.417 0.341,0.763 0.762,0.763" style="fill:#fff;fill-rule:nonzero;"/><path d="M100.27,60.75c3.454,-0 6.262,2.825 6.262,6.296c0,3.45 -2.808,6.258 -6.262,6.258c-3.475,0 -6.3,-2.808 -6.3,-6.258c-0,-3.471 2.825,-6.296 6.3,-6.296m-0,19.575c7.32,-0 13.275,-5.958 13.275,-13.279c-0,-7.342 -5.955,-13.317 -13.275,-13.317c-7.338,0 -13.309,5.975 -13.309,13.317c0,7.321 5.971,13.279 13.309,13.279" style="fill:#fff;fill-rule:nonzero;"/><path d="M125.41,61.735l4.104,-0c1.516,-0 2.754,1.233 2.754,2.75c-0,1.637 -1.408,2.491 -2.792,2.491l-4.066,0l-0,-5.241Zm14.537,17.929c0.421,-0 0.758,-0.346 0.758,-0.767c0,-0.246 -0.116,-0.467 -0.295,-0.604l-4.63,-6.338c2.521,-1.658 3.9,-4.283 3.9,-7.47c0,-5.684 -4.079,-10.134 -9.287,-10.134l-11.563,0c-0.416,0 -0.758,0.346 -0.758,0.763l0,23.783c0,0.421 0.342,0.767 0.758,0.767l5.817,-0c0.421,-0 0.763,-0.346 0.763,-0.767l-0,-5.158l3,-0l3.687,5.579c0.142,0.212 0.383,0.346 0.638,0.346l7.175,-0c0.016,-0.009 0.025,-0.009 0.037,-0" style="fill:#fff;fill-rule:nonzero;"/><path d="M64.661,97.116l-0.525,-0.096c-0.233,-0.042 -0.537,-0.075 -0.883,-0.112c-1.133,-0.117 -3.492,-0.371 -3.492,-1.3c0,-1.15 1.396,-2.121 3.042,-2.121c2.546,-0 3.292,0.875 3.337,1.058c0,0.421 0.342,0.767 0.763,0.767l5.887,-0c0.421,-0 0.763,-0.346 0.763,-0.767c-0,-3.65 -3.692,-7.346 -10.75,-7.346c-5.929,0 -10.75,3.775 -10.75,8.409c-0,5.433 6.108,6.645 8.108,7.037c0.259,0.058 0.621,0.113 1.046,0.175c1.904,0.267 5.45,0.771 5.45,2.671c0,0.925 -1.646,2.054 -3.558,2.054c-3.384,0 -3.684,-2.287 -3.704,-2.496c-0,-0.421 -0.342,-0.762 -0.759,-0.762l-6.187,-0c-0.421,-0 -0.759,0.341 -0.759,0.762c0,3.529 3.625,8.742 11.409,8.742c6.104,-0 11.258,-3.804 11.258,-8.3c0,-6.621 -6.308,-7.763 -9.696,-8.375" style="fill:#fff;fill-rule:nonzero;"/><path d="M94.808,103.735l-4.554,0l2.216,-5.033l2.338,5.033Zm0.675,-15.442c-0.125,-0.262 -0.396,-0.433 -0.688,-0.433l-4.32,0c-0.288,0 -0.555,0.163 -0.68,0.425l-11.816,23.783c-0.117,0.234 -0.104,0.517 0.033,0.738c0.138,0.225 0.383,0.367 0.65,0.367l6.438,-0c0.291,-0 0.554,-0.167 0.683,-0.43l1.396,-2.829l10.583,0l1.4,2.829c0.125,0.263 0.392,0.43 0.679,0.43l6.371,-0c0.421,-0 0.763,-0.346 0.763,-0.767c-0,-0.2 -0.075,-0.379 -0.205,-0.517l-11.287,-23.596Z" style="fill:#fff;fill-rule:nonzero;"/><path d="M130.84,105.932l-14.129,-0l-0,-17.309c-0,-0.42 -0.342,-0.762 -0.763,-0.762l-5.708,-0c-0.421,-0 -0.762,0.342 -0.762,0.762l-0,23.784c-0,0.421 0.341,0.762 0.762,0.762l20.6,0c0.421,0 0.763,-0.341 0.763,-0.762l-0,-5.709c-0,-0.42 -0.342,-0.766 -0.763,-0.766" style="fill:#fff;fill-rule:nonzero;"/><path d="M154.413,94.505c0.421,0 0.762,-0.345 0.762,-0.762l0,-5.121c0,-0.421 -0.341,-0.762 -0.762,-0.762l-17.892,-0c-0.421,-0 -0.762,0.341 -0.762,0.762l-0,23.783c-0,0.421 0.341,0.767 0.762,0.767l17.892,0c0.421,0 0.762,-0.346 0.762,-0.767l0,-5.087c0,-0.421 -0.341,-0.767 -0.762,-0.767l-11.421,0l0,-2.712l8.858,-0c0.421,-0 0.763,-0.346 0.763,-0.767l-0,-5.083c-0,-0.417 -0.342,-0.763 -0.763,-0.763l-8.858,0l0,-2.721l11.421,0Z" style="fill:#fff;fill-rule:nonzero;"/><rect x="53.487" y="18.027" width="11.912" height="17.479" style="fill:none;stroke:#fff;stroke-width:6.25px;"/><rect x="139.108" y="18.027" width="11.912" height="17.479" style="fill:none;stroke:#fff;stroke-width:6.25px;"/><path d="M201.383,17.229l0,150.225c0,2.304 -1.866,4.167 -4.166,4.167l-6.571,-0c-2.3,-0 -4.167,-1.863 -4.167,-4.167l0,-142.375c0,-3.896 -3.158,-7.05 -7.054,-7.05l-154.342,0c-3.896,0 -7.054,3.154 -7.054,7.05l0,142.375c0,2.304 -1.862,4.167 -4.167,4.167l-6.57,-0c-2.3,-0 -4.167,-1.863 -4.167,-4.167l-0,-150.225c-0,-7.792 6.317,-14.104 14.108,-14.104l170.046,-0c7.788,-0 14.104,6.312 14.104,14.104Z" style="fill:none;fill-rule:nonzero;stroke:#fff;stroke-width:6.25px;"/></svg>