<?xml version="1.0" encoding="UTF-8" standalone="no"?><!DOCTYPE svg PUBLIC "-//W3C//DTD SVG 1.1//EN" "http://www.w3.org/Graphics/SVG/1.1/DTD/svg11.dtd"><svg width="100%" height="100%" viewBox="0 0 181 148" version="1.1" xmlns="http://www.w3.org/2000/svg" xmlns:xlink="http://www.w3.org/1999/xlink" xml:space="preserve" xmlns:serif="http://www.serif.com/" style="fill-rule:evenodd;clip-rule:evenodd;stroke-linecap:round;stroke-linejoin:round;stroke-miterlimit:2.613;"><path d="M13.504,3.125l57.633,-0c2.996,-0 5.421,2.425 5.421,5.421l0,135.346l-68.475,-0l0,-135.346c0,-2.996 2.429,-5.421 5.421,-5.421Z" style="fill:none;fill-rule:nonzero;stroke:#fff;stroke-width:6.25px;"/><path d="M110.099,3.125l57.633,-0c2.996,-0 5.421,2.425 5.421,5.421l0,135.346l-68.475,-0l0,-135.346c0,-2.996 2.429,-5.421 5.421,-5.421Z" style="fill:none;fill-rule:nonzero;stroke:#fff;stroke-width:6.25px;"/><rect x="33.43" y="114.394" width="17.783" height="29.496" style="fill:none;stroke:#fff;stroke-width:6.25px;"/><rect x="130.026" y="114.394" width="17.783" height="29.496" style="fill:none;stroke:#fff;stroke-width:6.25px;"/><rect x="76.276" y="103.828" width="28.404" height="40.063" style="fill:none;stroke:#fff;stroke-width:6.25px;"/><path d="M23.09,23.874l-0,-6.45" style="fill:none;fill-rule:nonzero;stroke:#fff;stroke-width:6.25px;"/><path d="M42.321,23.874l-0,-6.45" style="fill:none;fill-rule:nonzero;stroke:#fff;stroke-width:6.25px;"/><path d="M61.553,23.874l-0,-6.45" style="fill:none;fill-rule:nonzero;stroke:#fff;stroke-width:6.25px;"/><path d="M23.09,42.602l-0,-6.45" style="fill:none;fill-rule:nonzero;stroke:#fff;stroke-width:6.25px;"/><path d="M42.321,42.602l-0,-6.45" style="fill:none;fill-rule:nonzero;stroke:#fff;stroke-width:6.25px;"/><path d="M61.553,42.602l-0,-6.45" style="fill:none;fill-rule:nonzero;stroke:#fff;stroke-width:6.25px;"/><path d="M23.09,61.33l-0,-6.45" style="fill:none;fill-rule:nonzero;stroke:#fff;stroke-width:6.25px;"/><path d="M42.321,61.33l-0,-6.45" style="fill:none;fill-rule:nonzero;stroke:#fff;stroke-width:6.25px;"/><path d="M61.553,61.33l-0,-6.45" style="fill:none;fill-rule:nonzero;stroke:#fff;stroke-width:6.25px;"/><path d="M23.09,80.058l-0,-6.45" style="fill:none;fill-rule:nonzero;stroke:#fff;stroke-width:6.25px;"/><path d="M42.321,80.058l-0,-6.45" style="fill:none;fill-rule:nonzero;stroke:#fff;stroke-width:6.25px;"/><path d="M61.553,80.058l-0,-6.45" style="fill:none;fill-rule:nonzero;stroke:#fff;stroke-width:6.25px;"/><path d="M23.09,98.786l-0,-6.45" style="fill:none;fill-rule:nonzero;stroke:#fff;stroke-width:6.25px;"/><path d="M42.321,98.786l-0,-6.45" style="fill:none;fill-rule:nonzero;stroke:#fff;stroke-width:6.25px;"/><path d="M61.553,98.786l-0,-6.45" style="fill:none;fill-rule:nonzero;stroke:#fff;stroke-width:6.25px;"/><path d="M23.09,117.514l-0,-6.45" style="fill:none;fill-rule:nonzero;stroke:#fff;stroke-width:6.25px;"/><path d="M61.553,117.514l-0,-6.45" style="fill:none;fill-rule:nonzero;stroke:#fff;stroke-width:6.25px;"/><path d="M119.685,23.874l-0,-6.45" style="fill:none;fill-rule:nonzero;stroke:#fff;stroke-width:6.25px;"/><path d="M138.916,23.874l-0,-6.45" style="fill:none;fill-rule:nonzero;stroke:#fff;stroke-width:6.25px;"/><path d="M158.147,23.874l0,-6.45" style="fill:none;fill-rule:nonzero;stroke:#fff;stroke-width:6.25px;"/><path d="M119.685,42.602l-0,-6.45" style="fill:none;fill-rule:nonzero;stroke:#fff;stroke-width:6.25px;"/><path d="M138.916,42.602l-0,-6.45" style="fill:none;fill-rule:nonzero;stroke:#fff;stroke-width:6.25px;"/><path d="M158.147,42.602l0,-6.45" style="fill:none;fill-rule:nonzero;stroke:#fff;stroke-width:6.25px;"/><path d="M119.685,61.33l-0,-6.45" style="fill:none;fill-rule:nonzero;stroke:#fff;stroke-width:6.25px;"/><path d="M138.916,61.33l-0,-6.45" style="fill:none;fill-rule:nonzero;stroke:#fff;stroke-width:6.25px;"/><path d="M158.147,61.33l0,-6.45" style="fill:none;fill-rule:nonzero;stroke:#fff;stroke-width:6.25px;"/><path d="M119.685,80.058l-0,-6.45" style="fill:none;fill-rule:nonzero;stroke:#fff;stroke-width:6.25px;"/><path d="M138.916,80.058l-0,-6.45" style="fill:none;fill-rule:nonzero;stroke:#fff;stroke-width:6.25px;"/><path d="M158.147,80.058l0,-6.45" style="fill:none;fill-rule:nonzero;stroke:#fff;stroke-width:6.25px;"/><path d="M119.685,98.786l-0,-6.45" style="fill:none;fill-rule:nonzero;stroke:#fff;stroke-width:6.25px;"/><path d="M138.916,98.786l-0,-6.45" style="fill:none;fill-rule:nonzero;stroke:#fff;stroke-width:6.25px;"/><path d="M158.147,98.786l0,-6.45" style="fill:none;fill-rule:nonzero;stroke:#fff;stroke-width:6.25px;"/><path d="M119.685,117.514l-0,-6.45" style="fill:none;fill-rule:nonzero;stroke:#fff;stroke-width:6.25px;"/><path d="M158.147,117.514l0,-6.45" style="fill:none;fill-rule:nonzero;stroke:#fff;stroke-width:6.25px;"/><path d="M104.68,117.051l-28.404,0" style="fill:none;fill-rule:nonzero;stroke:#fff;stroke-width:6.25px;"/><path d="M3.125,143.89l174.708,-0" style="fill:none;fill-rule:nonzero;stroke:#fff;stroke-width:6.25px;"/></svg>