<?xml version="1.0" encoding="UTF-8" standalone="no"?><!DOCTYPE svg PUBLIC "-//W3C//DTD SVG 1.1//EN" "http://www.w3.org/Graphics/SVG/1.1/DTD/svg11.dtd"><svg width="100%" height="100%" viewBox="0 0 100 100" version="1.1" xmlns="http://www.w3.org/2000/svg" xmlns:xlink="http://www.w3.org/1999/xlink" xml:space="preserve" xmlns:serif="http://www.serif.com/" style="fill-rule:evenodd;clip-rule:evenodd;stroke-linejoin:round;stroke-miterlimit:2;"><path d="M50,0c-13.569,0 -15.275,0.063 -20.606,0.3c-5.331,0.25 -8.963,1.088 -12.144,2.325c-3.337,1.255 -6.36,3.224 -8.856,5.769c-2.543,2.498 -4.512,5.52 -5.769,8.856c-1.238,3.175 -2.081,6.813 -2.325,12.125c-0.237,5.344 -0.3,7.044 -0.3,20.631c0,13.575 0.063,15.275 0.3,20.607c0.25,5.325 1.088,8.956 2.325,12.137c1.281,3.288 2.987,6.075 5.769,8.856c2.775,2.782 5.562,4.494 8.85,5.769c3.187,1.238 6.812,2.081 12.137,2.325c5.338,0.238 7.038,0.3 20.619,0.3c13.581,0 15.275,-0.062 20.612,-0.3c5.319,-0.25 8.963,-1.087 12.144,-2.325c3.335,-1.256 6.355,-3.225 8.85,-5.769c2.782,-2.781 4.488,-5.568 5.769,-8.856c1.231,-3.181 2.075,-6.812 2.325,-12.137c0.237,-5.332 0.3,-7.032 0.3,-20.613c0,-13.581 -0.063,-15.281 -0.3,-20.619c-0.25,-5.318 -1.094,-8.956 -2.325,-12.131c-1.257,-3.336 -3.225,-6.358 -5.769,-8.856c-2.496,-2.546 -5.519,-4.515 -8.856,-5.769c-3.188,-1.237 -6.825,-2.081 -12.144,-2.325c-5.337,-0.237 -7.031,-0.3 -20.618,-0.3l0.018,0l-0.006,0Zm-4.481,9.013l4.487,-0c13.35,-0 14.932,0.043 20.2,0.287c4.875,0.219 7.525,1.038 9.288,1.719c2.331,0.906 4,1.994 5.75,3.744c1.75,1.75 2.831,3.412 3.737,5.75c0.688,1.756 1.5,4.406 1.719,9.281c0.244,5.269 0.294,6.85 0.294,20.194c-0,13.343 -0.05,14.931 -0.294,20.2c-0.219,4.875 -1.037,7.518 -1.719,9.281c-0.801,2.171 -2.081,4.134 -3.743,5.744c-1.75,1.75 -3.413,2.831 -5.75,3.737c-1.75,0.688 -4.4,1.5 -9.282,1.725c-5.268,0.238 -6.85,0.294 -20.2,0.294c-13.35,-0 -14.937,-0.056 -20.206,-0.294c-4.875,-0.225 -7.519,-1.037 -9.281,-1.725c-2.172,-0.8 -4.137,-2.078 -5.75,-3.737c-1.664,-1.613 -2.946,-3.578 -3.75,-5.75c-0.681,-1.757 -1.5,-4.407 -1.719,-9.282c-0.237,-5.268 -0.287,-6.85 -0.287,-20.206c-0,-13.35 0.05,-14.925 0.287,-20.194c0.225,-4.875 1.038,-7.525 1.725,-9.287c0.906,-2.331 1.994,-4 3.744,-5.75c1.75,-1.75 3.412,-2.831 5.75,-3.738c1.762,-0.687 4.406,-1.5 9.281,-1.725c4.613,-0.212 6.4,-0.275 15.719,-0.281l-0,0.013Zm31.175,8.3c-3.292,-0.001 -6,2.708 -6,5.999c-0,3.292 2.708,6 6,6c3.291,0 6,-2.708 6,-6c-0,-3.291 -2.709,-6 -6,-6Zm-26.688,7.013c-0.133,-0.002 -0.267,-0.003 -0.4,-0.003c-14.089,-0 -25.682,11.593 -25.682,25.681c0,14.088 11.593,25.681 25.682,25.681c0.133,0 0.267,-0.001 0.4,-0.003c13.936,-0.217 25.281,-11.741 25.281,-25.678c-0,-13.937 -11.345,-25.461 -25.281,-25.678Zm0,9.006c9.144,0 16.669,7.525 16.669,16.669c0,9.144 -7.525,16.669 -16.669,16.669c-9.144,-0 -16.668,-7.525 -16.668,-16.669c-0,-9.144 7.524,-16.669 16.668,-16.669Z" style="fill:#293241;fill-rule:nonzero;"/></svg>