<?xml version="1.0" encoding="UTF-8" standalone="no"?><!DOCTYPE svg PUBLIC "-//W3C//DTD SVG 1.1//EN" "http://www.w3.org/Graphics/SVG/1.1/DTD/svg11.dtd"><svg width="100%" height="100%" viewBox="0 0 103 103" version="1.1" xmlns="http://www.w3.org/2000/svg" xmlns:xlink="http://www.w3.org/1999/xlink" xml:space="preserve" xmlns:serif="http://www.serif.com/" style="fill-rule:evenodd;clip-rule:evenodd;stroke-linejoin:round;stroke-miterlimit:2;"><path d="M51.458,1.458c-13.568,0 -15.275,0.063 -20.606,0.3c-5.331,0.25 -8.962,1.088 -12.144,2.325c-3.336,1.255 -6.359,3.224 -8.856,5.769c-2.543,2.498 -4.512,5.52 -5.769,8.856c-1.237,3.175 -2.081,6.813 -2.325,12.125c-0.237,5.344 -0.3,7.044 -0.3,20.632c0,13.575 0.063,15.275 0.3,20.606c0.25,5.325 1.088,8.956 2.325,12.137c1.282,3.288 2.988,6.075 5.769,8.857c2.775,2.781 5.563,4.493 8.85,5.768c3.188,1.238 6.813,2.082 12.138,2.325c5.337,0.238 7.037,0.3 20.618,0.3c13.582,0 15.275,-0.062 20.613,-0.3c5.319,-0.25 8.962,-1.087 12.144,-2.325c3.334,-1.255 6.355,-3.224 8.85,-5.768c2.781,-2.782 4.487,-5.569 5.768,-8.857c1.232,-3.181 2.075,-6.812 2.325,-12.137c0.238,-5.331 0.3,-7.031 0.3,-20.613c0,-13.581 -0.062,-15.281 -0.3,-20.618c-0.25,-5.319 -1.093,-8.957 -2.325,-12.132c-1.256,-3.336 -3.225,-6.358 -5.768,-8.856c-2.496,-2.546 -5.519,-4.515 -8.857,-5.769c-3.187,-1.237 -6.825,-2.081 -12.143,-2.325c-5.338,-0.237 -7.032,-0.3 -20.619,-0.3l0.019,0l-0.007,0Zm-4.481,9.013l4.488,-0c13.35,-0 14.931,0.044 20.2,0.287c4.875,0.219 7.525,1.038 9.287,1.719c2.331,0.906 4,1.994 5.75,3.744c1.75,1.75 2.831,3.412 3.738,5.75c0.687,1.756 1.5,4.406 1.718,9.281c0.244,5.269 0.294,6.85 0.294,20.194c0,13.344 -0.05,14.931 -0.294,20.2c-0.218,4.875 -1.037,7.519 -1.718,9.281c-0.802,2.171 -2.082,4.134 -3.744,5.744c-1.75,1.75 -3.413,2.831 -5.75,3.737c-1.75,0.688 -4.4,1.5 -9.281,1.725c-5.269,0.238 -6.85,0.294 -20.2,0.294c-13.35,0 -14.938,-0.056 -20.207,-0.294c-4.875,-0.225 -7.518,-1.037 -9.281,-1.725c-2.172,-0.8 -4.137,-2.077 -5.75,-3.737c-1.664,-1.612 -2.945,-3.577 -3.75,-5.75c-0.681,-1.756 -1.5,-4.406 -1.719,-9.281c-0.237,-5.269 -0.287,-6.85 -0.287,-20.207c-0,-13.35 0.05,-14.925 0.287,-20.193c0.225,-4.875 1.038,-7.525 1.725,-9.288c0.907,-2.331 1.994,-4 3.744,-5.75c1.75,-1.75 3.413,-2.831 5.75,-3.737c1.763,-0.688 4.406,-1.5 9.281,-1.725c4.613,-0.213 6.4,-0.275 15.719,-0.282l0,0.013Zm31.175,8.3c-3.291,-0 -6,2.708 -6,6c0,3.291 2.709,6 6,6c3.292,-0 6,-2.709 6,-6c0,-3.292 -2.708,-6 -6,-6Zm-26.687,7.012c-0.134,-0.002 -0.267,-0.003 -0.401,-0.003c-14.088,0 -25.681,11.593 -25.681,25.681c-0,14.089 11.593,25.682 25.681,25.682c0.134,-0 0.267,-0.001 0.401,-0.003c13.935,-0.218 25.28,-11.742 25.28,-25.679c0,-13.937 -11.345,-25.46 -25.28,-25.678Zm-0,9.007c9.144,-0 16.668,7.524 16.668,16.668c0,9.145 -7.524,16.669 -16.668,16.669c-9.145,0 -16.669,-7.524 -16.669,-16.669c-0,-9.144 7.524,-16.668 16.669,-16.668Z" style="fill-rule:nonzero;stroke:#000;stroke-width:2.92px;"/></svg>