<?xml version="1.0" encoding="UTF-8" standalone="no"?><!DOCTYPE svg PUBLIC "-//W3C//DTD SVG 1.1//EN" "http://www.w3.org/Graphics/SVG/1.1/DTD/svg11.dtd"><svg width="100%" height="100%" viewBox="0 0 2084 339" version="1.1" xmlns="http://www.w3.org/2000/svg" xmlns:xlink="http://www.w3.org/1999/xlink" xml:space="preserve" xmlns:serif="http://www.serif.com/" style="fill-rule:evenodd;clip-rule:evenodd;stroke-linejoin:round;stroke-miterlimit:2;"><g id="Logo"><g><path d="M423.488,66.629l-28.233,-0l0,158.102l28.233,-0l-0,-70.243l65.047,70.243l34.557,-0l-75.211,-81.31l70.694,-76.792l-34.557,-0l-60.53,65.725l-0,-65.725Z" style="fill:#293241;fill-rule:nonzero;"/><path d="M563.069,178.655l85.375,0l0,-8.808c0,-42.236 -16.713,-60.305 -55.335,-60.305c-38.848,0 -55.336,17.617 -55.336,58.724c-0,41.106 16.488,58.723 55.336,58.723c30.265,0 45.623,-11.067 50.818,-36.589l-24.393,0c-3.839,14.003 -11.293,19.424 -26.425,19.424c-18.973,0 -28.007,-9.486 -30.04,-31.169Zm29.814,-51.947c20.779,-0 29.587,10.389 29.587,36.363l-59.853,-0c1.13,-25.522 10.39,-36.363 30.266,-36.363Z" style="fill:#293241;fill-rule:nonzero;"/><path d="M714.621,207.565l-30.265,-95.764l-27.329,-0l38.17,112.93l37.945,-0l37.944,-112.93l-27.329,-0l-29.136,95.764Z" style="fill:#293241;fill-rule:nonzero;"/><path d="M858.042,213.438l3.162,11.293l20.328,-0l-0,-74.082c-0,-28.685 -14.907,-41.107 -48.56,-41.107c-34.105,0 -48.56,10.841 -48.56,36.138l24.393,-0c-0.226,-14.455 6.55,-20.328 23.489,-20.328c16.488,0 23.49,6.55 23.49,22.586l-0,5.421l-23.264,-0c-36.815,-0 -52.625,11.519 -52.625,38.396c-0,24.619 12.422,35.234 41.784,35.234c17.165,0 29.136,-4.291 36.363,-13.551Zm-2.258,-44.495l-0,12.649c-0.904,18.746 -9.26,26.877 -27.329,26.877c-16.262,-0 -23.038,-4.969 -23.038,-18.069c0,-14.907 8.357,-21.005 27.781,-21.231c1.355,0 2.936,-0.226 4.291,-0.226l18.295,0Z" style="fill:#293241;fill-rule:nonzero;"/><path d="M934.835,168.266c-0,-27.103 5.872,-35.912 26.425,-35.912l14.23,0l-0,-22.812l-14.23,0c-12.196,0 -21.682,4.743 -28.006,14.003l-3.614,-11.744l-20.327,-0l-0,112.93l25.522,-0l-0,-56.465Z" style="fill:#293241;fill-rule:nonzero;"/><path d="M1015.01,178.655l85.375,0l0,-8.808c0,-42.236 -16.713,-60.305 -55.335,-60.305c-38.848,0 -55.336,17.617 -55.336,58.724c-0,41.106 16.488,58.723 55.336,58.723c30.265,0 45.623,-11.067 50.818,-36.589l-24.393,0c-3.839,14.003 -11.293,19.424 -26.425,19.424c-18.973,0 -28.007,-9.486 -30.04,-31.169Zm29.814,-51.947c20.779,-0 29.587,10.389 29.587,36.363l-59.853,-0c1.13,-25.522 10.39,-36.363 30.266,-36.363Z" style="fill:#293241;fill-rule:nonzero;"/><path d="M1143.3,140.485c-0,-10.841 6.324,-15.133 21.908,-15.133c15.584,0 21.909,5.195 21.909,18.069l23.037,0c0,-23.715 -13.551,-33.879 -44.946,-33.879c-32.524,0 -46.301,10.164 -46.301,33.653c-0,44.269 69.113,22.812 69.113,50.819c-0,12.196 -6.55,17.165 -22.812,17.165c-16.262,0 -23.038,-5.872 -23.038,-20.327l-24.167,-0c0,25.296 13.778,36.137 46.302,36.137c34.556,0 49.463,-10.841 49.463,-35.911c0,-45.172 -70.468,-25.071 -70.468,-50.593Z" style="fill:#293241;fill-rule:nonzero;"/><path d="M1306.38,224.731l26.877,-0l0,-121.739l46.527,117.222l1.355,4.517l17.843,-0l2.033,-6.776l45.85,-114.963l-0,121.739l27.103,-0l-0,-158.102l-37.267,-0l-46.076,117.899l-45.849,-117.899l-38.396,-0l-0,158.102Z" style="fill:#293241;fill-rule:nonzero;"/><path d="M1559.34,109.542c-40.429,0 -57.594,17.617 -57.594,58.724c-0,41.106 17.165,58.723 57.594,58.723c40.203,0 57.594,-17.617 57.594,-58.723c0,-41.107 -17.391,-58.724 -57.594,-58.724Zm-32.072,58.724c-0,-27.555 9.26,-38.848 32.072,-38.848c22.586,-0 31.846,11.519 31.846,38.848c0,27.329 -9.26,38.848 -31.846,38.848c-22.586,-0 -32.072,-11.519 -32.072,-38.848Z" style="fill:#293241;fill-rule:nonzero;"/><path d="M1665.72,168.266c0,-27.103 5.872,-35.912 26.426,-35.912l14.229,0l-0,-22.812l-14.229,0c-12.197,0 -21.683,4.743 -28.007,14.003l-3.614,-11.744l-20.327,-0l-0,112.93l25.522,-0l0,-56.465Z" style="fill:#293241;fill-rule:nonzero;"/><path d="M1766.9,226.989c16.488,0 28.459,-4.065 36.364,-12.874l-0,3.614c-0,26.2 -9.035,37.267 -30.943,37.267c-14.907,0 -22.134,-5.421 -25.296,-19.424l-24.167,0c4.291,25.522 19.424,36.589 50.818,36.589c38.622,0 55.336,-17.617 55.336,-58.723l-0,-101.637l-20.328,-0l-3.387,13.1c-7.906,-10.616 -20.554,-15.585 -38.397,-15.585c-34.105,0 -48.56,17.617 -48.56,58.724c0,41.106 14.455,58.724 48.56,58.724l0,0.225Zm6.776,-20.101c-21.231,-0 -29.813,-11.519 -29.813,-38.848c-0,-27.329 8.808,-38.848 29.813,-38.848c21.005,-0 29.588,11.519 29.588,38.848c-0,27.555 -8.583,38.848 -29.588,38.848Z" style="fill:#293241;fill-rule:nonzero;"/><path d="M1930.43,213.438l3.162,11.293l20.328,-0l-0,-74.082c-0,-28.685 -14.907,-41.107 -48.56,-41.107c-34.105,0 -48.56,10.841 -48.56,36.138l24.393,-0c-0.226,-14.455 6.55,-20.328 23.489,-20.328c16.488,0 23.489,6.55 23.489,22.586l0,5.421l-23.263,-0c-36.815,-0 -52.626,11.519 -52.626,38.396c0,24.619 12.423,35.234 41.785,35.234c17.165,0 29.136,-4.291 36.363,-13.551Zm-2.259,-44.495l0,12.649c-0.903,18.746 -9.26,26.877 -27.329,26.877c-16.262,-0 -23.037,-4.969 -23.037,-18.069c-0,-14.907 8.356,-21.005 27.78,-21.231c1.356,0 2.937,-0.226 4.292,-0.226l18.294,0Z" style="fill:#293241;fill-rule:nonzero;"/><path d="M2005.41,122.642l-3.388,-10.841l-20.328,-0l0,112.93l25.522,-0l0,-55.562c0,-3.839 0.226,-7.227 0.452,-10.615c1.13,-20.328 9.035,-29.136 25.748,-29.136c17.166,-0 24.167,9.938 24.167,34.331l0,60.982l25.748,-0l0,-60.982c0,-37.945 -13.1,-54.207 -43.365,-54.207c-16.036,0 -27.329,4.066 -34.556,13.1Z" style="fill:#293241;fill-rule:nonzero;"/></g><path id="Roof--K--Icon" serif:id="Roof &quot;K&quot; Icon" d="M338.79,0l-282.603,0c-31.031,0 -56.187,25.156 -56.187,56.187l0,226.294c-0,14.934 5.933,29.256 16.493,39.816c10.56,10.561 24.882,16.493 39.816,16.493l225.914,0c15.002,0 29.39,-5.96 39.999,-16.568c10.608,-10.609 16.568,-24.997 16.568,-39.999l0,-282.223Z" style="fill:#293241;"/><clipPath id="_clip1"><path d="M338.79,0l-282.603,0c-31.031,0 -56.187,25.156 -56.187,56.187l0,226.294c-0,14.934 5.933,29.256 16.493,39.816c10.56,10.561 24.882,16.493 39.816,16.493l225.914,0c15.002,0 29.39,-5.96 39.999,-16.568c10.608,-10.609 16.568,-24.997 16.568,-39.999l0,-282.223Z"/></clipPath><g clip-path="url(#_clip1)"><g><path d="M107.185,63.102l-38.058,0l-0,213.125l38.058,0l0,-94.688l87.686,94.688l46.583,0l-101.387,-109.607l95.297,-103.518l-46.583,0l-81.596,88.599l0,-88.599Z" style="fill:#fff;fill-rule:nonzero;"/><clipPath id="_clip2"><path d="M269.663,63.106l-86.687,-0.543l-1.335,213.121l86.686,0.543l1.336,-213.121Z"/></clipPath><g clip-path="url(#_clip2)"><path d="M283.025,276.319l-100.697,-110.24l95.944,-102.919" style="fill:#fff;fill-rule:nonzero;"/></g></g></g></g></svg>