<?xml version="1.0" encoding="UTF-8" standalone="no"?><!DOCTYPE svg PUBLIC "-//W3C//DTD SVG 1.1//EN" "http://www.w3.org/Graphics/SVG/1.1/DTD/svg11.dtd"><svg width="100%" height="100%" viewBox="0 0 625 102" version="1.1" xmlns="http://www.w3.org/2000/svg" xmlns:xlink="http://www.w3.org/1999/xlink" xml:space="preserve" xmlns:serif="http://www.serif.com/" style="fill-rule:evenodd;clip-rule:evenodd;stroke-linejoin:round;stroke-miterlimit:2;"><g id="Logo"><g><path d="M127.046,19.989l-8.469,-0l-0,47.43l8.469,0l0,-21.073l19.515,21.073l10.367,0l-22.564,-24.393l21.208,-23.037l-10.367,-0l-18.159,19.717l0,-19.717Z" style="fill-rule:nonzero;"/><path d="M168.921,53.597l25.612,-0l0,-2.643c0,-12.671 -5.014,-18.091 -16.6,-18.091c-11.655,-0 -16.601,5.285 -16.601,17.617c-0,12.332 4.946,17.617 16.601,17.617c9.079,-0 13.687,-3.32 15.245,-10.977l-7.318,0c-1.152,4.201 -3.388,5.827 -7.927,5.827c-5.692,0 -8.402,-2.846 -9.012,-9.35Zm8.944,-15.585c6.234,0 8.876,3.117 8.876,10.909l-17.956,0c0.339,-7.656 3.117,-10.909 9.08,-10.909Z" style="fill-rule:nonzero;"/><path d="M214.386,62.27l-9.079,-28.73l-8.199,0l11.451,33.879l11.384,0l11.383,-33.879l-8.199,0l-8.741,28.73Z" style="fill-rule:nonzero;"/><path d="M257.413,64.031l0.948,3.388l6.099,0l-0,-22.224c-0,-8.606 -4.472,-12.332 -14.568,-12.332c-10.232,-0 -14.568,3.252 -14.568,10.841l7.317,-0c-0.067,-4.337 1.965,-6.098 7.047,-6.098c4.947,-0 7.047,1.965 7.047,6.776l0,1.626l-6.979,-0c-11.044,-0 -15.788,3.455 -15.788,11.519c0,7.385 3.727,10.57 12.536,10.57c5.149,-0 8.74,-1.288 10.909,-4.066Zm-0.678,-13.348l0,3.794c-0.271,5.624 -2.778,8.064 -8.199,8.064c-4.878,-0 -6.911,-1.491 -6.911,-5.421c0,-4.472 2.507,-6.301 8.334,-6.369c0.407,-0 0.881,-0.068 1.288,-0.068l5.488,0Z" style="fill-rule:nonzero;"/><path d="M280.45,50.48c0,-8.131 1.762,-10.774 7.928,-10.774l4.269,0l-0,-6.843l-4.269,-0c-3.659,-0 -6.505,1.423 -8.402,4.201l-1.084,-3.524l-6.098,0l-0,33.879l7.656,0l0,-16.939Z" style="fill-rule:nonzero;"/><path d="M304.505,53.597l25.612,-0l0,-2.643c0,-12.671 -5.014,-18.091 -16.601,-18.091c-11.654,-0 -16.6,5.285 -16.6,17.617c-0,12.332 4.946,17.617 16.6,17.617c9.08,-0 13.687,-3.32 15.246,-10.977l-7.318,0c-1.152,4.201 -3.388,5.827 -7.928,5.827c-5.691,0 -8.402,-2.846 -9.011,-9.35Zm8.944,-15.585c6.233,0 8.876,3.117 8.876,10.909l-17.956,0c0.339,-7.656 3.117,-10.909 9.08,-10.909Z" style="fill-rule:nonzero;"/><path d="M342.991,42.145c0,-3.252 1.897,-4.539 6.573,-4.539c4.675,-0 6.572,1.558 6.572,5.42l6.911,0c0,-7.114 -4.065,-10.163 -13.483,-10.163c-9.758,-0 -13.891,3.049 -13.891,10.096c0,13.28 20.734,6.843 20.734,15.245c0,3.659 -1.965,5.15 -6.843,5.15c-4.879,-0 -6.912,-1.762 -6.912,-6.098l-7.25,-0c0,7.588 4.133,10.841 13.891,10.841c10.367,-0 14.839,-3.253 14.839,-10.774c-0,-13.551 -21.141,-7.521 -21.141,-15.178Z" style="fill-rule:nonzero;"/><path d="M391.912,67.419l8.064,0l-0,-36.521l13.958,35.166l0.406,1.355l5.353,0l0.61,-2.033l13.755,-34.488l-0,36.521l8.131,0l-0,-47.43l-11.18,-0l-13.823,35.369l-13.755,-35.369l-11.519,-0l0,47.43Z" style="fill-rule:nonzero;"/><path d="M467.801,32.863c-12.128,-0 -17.278,5.285 -17.278,17.617c0,12.332 5.15,17.617 17.278,17.617c12.061,-0 17.279,-5.285 17.279,-17.617c-0,-12.332 -5.218,-17.617 -17.279,-17.617Zm-9.621,17.617c-0,-8.267 2.778,-11.655 9.621,-11.655c6.776,0 9.554,3.456 9.554,11.655c0,8.198 -2.778,11.654 -9.554,11.654c-6.775,0 -9.621,-3.456 -9.621,-11.654Z" style="fill-rule:nonzero;"/><path d="M499.715,50.48c0,-8.131 1.762,-10.774 7.928,-10.774l4.269,0l-0,-6.843l-4.269,-0c-3.659,-0 -6.505,1.423 -8.402,4.201l-1.084,-3.524l-6.098,0l-0,33.879l7.656,0l0,-16.939Z" style="fill-rule:nonzero;"/><path d="M530.071,68.097c4.946,-0 8.538,-1.22 10.909,-3.862l0,1.084c0,7.86 -2.71,11.18 -9.283,11.18c-4.472,-0 -6.64,-1.626 -7.589,-5.827l-7.25,-0c1.288,7.656 5.827,10.976 15.246,10.976c11.586,0 16.6,-5.285 16.6,-17.617l0,-30.491l-6.098,0l-1.016,3.93c-2.372,-3.184 -6.166,-4.675 -11.519,-4.675c-10.231,-0 -14.568,5.285 -14.568,17.617c0,12.332 4.337,17.617 14.568,17.617l0,0.068Zm2.033,-6.031c-6.37,0 -8.944,-3.455 -8.944,-11.654c-0,-8.199 2.642,-11.654 8.944,-11.654c6.301,-0 8.876,3.455 8.876,11.654c0,8.266 -2.575,11.654 -8.876,11.654Z" style="fill-rule:nonzero;"/><path d="M579.128,64.031l0.948,3.388l6.099,0l-0,-22.224c-0,-8.606 -4.472,-12.332 -14.568,-12.332c-10.232,-0 -14.568,3.252 -14.568,10.841l7.318,-0c-0.068,-4.337 1.965,-6.098 7.046,-6.098c4.947,-0 7.047,1.965 7.047,6.776l0,1.626l-6.979,-0c-11.044,-0 -15.787,3.455 -15.787,11.519c-0,7.385 3.726,10.57 12.535,10.57c5.149,-0 8.741,-1.288 10.909,-4.066Zm-0.678,-13.348l0,3.794c-0.271,5.624 -2.778,8.064 -8.198,8.064c-4.879,-0 -6.912,-1.491 -6.912,-5.421c0,-4.472 2.507,-6.301 8.334,-6.369c0.407,-0 0.881,-0.068 1.288,-0.068l5.488,0Z" style="fill-rule:nonzero;"/><path d="M601.623,36.793l-1.016,-3.253l-6.098,0l-0,33.879l7.657,0l-0,-16.668c-0,-1.152 0.067,-2.168 0.135,-3.185c0.339,-6.098 2.71,-8.741 7.724,-8.741c5.15,0 7.251,2.982 7.251,10.3l-0,18.294l7.724,0l-0,-18.294c-0,-11.384 -3.93,-16.262 -13.01,-16.262c-4.81,-0 -8.198,1.219 -10.367,3.93Z" style="fill-rule:nonzero;"/></g><path id="Roof--K--Icon" serif:id="Roof &quot;K&quot; Icon" d="M101.637,0l-84.781,0c-9.309,0 -16.856,7.547 -16.856,16.856l0,67.888c-0,4.48 1.78,8.777 4.948,11.945c3.168,3.168 7.465,4.948 11.945,4.948l67.774,0c4.501,0 8.817,-1.788 12,-4.97c3.182,-3.183 4.97,-7.499 4.97,-12l0,-84.667Z"/><clipPath id="_clip1"><path d="M101.637,0l-84.781,0c-9.309,0 -16.856,7.547 -16.856,16.856l0,67.888c-0,4.48 1.78,8.777 4.948,11.945c3.168,3.168 7.465,4.948 11.945,4.948l67.774,0c4.501,0 8.817,-1.788 12,-4.97c3.182,-3.183 4.97,-7.499 4.97,-12l0,-84.667Z"/></clipPath><g clip-path="url(#_clip1)"><g><path d="M32.156,18.931l-11.418,-0l0,63.937l11.418,0l-0,-28.406l26.305,28.406l13.975,0l-30.416,-32.882l28.589,-31.055l-13.975,-0l-24.478,26.579l-0,-26.579Z" style="fill:#fff;fill-rule:nonzero;"/><clipPath id="_clip2"><path d="M80.899,18.932l-26.006,-0.163l-0.401,63.936l26.006,0.163l0.401,-63.936Z"/></clipPath><g clip-path="url(#_clip2)"><path d="M84.908,82.896l-30.21,-33.072l28.784,-30.876" style="fill:#fff;fill-rule:nonzero;"/></g></g></g></g></svg>