<?xml version="1.0" encoding="UTF-8" standalone="no"?><!DOCTYPE svg PUBLIC "-//W3C//DTD SVG 1.1//EN" "http://www.w3.org/Graphics/SVG/1.1/DTD/svg11.dtd"><svg width="100%" height="100%" viewBox="0 0 102 102" version="1.1" xmlns="http://www.w3.org/2000/svg" xmlns:xlink="http://www.w3.org/1999/xlink" xml:space="preserve" xmlns:serif="http://www.serif.com/" style="fill-rule:evenodd;clip-rule:evenodd;stroke-linejoin:round;stroke-miterlimit:2;"><path d="M23.673,9.135c-0.802,-1.032 -2.038,-1.637 -3.345,-1.637c-1.125,0 -2.204,0.448 -2.998,1.243l-6.463,6.469c-3.018,3.025 -4.131,7.306 -2.812,11.062c5.473,15.546 14.377,29.663 26.049,41.299c11.636,11.672 25.752,20.576 41.299,26.049c3.756,1.318 8.037,0.206 11.062,-2.813l6.462,-6.462c0.796,-0.794 1.243,-1.874 1.243,-2.998c0,-1.307 -0.605,-2.543 -1.637,-3.345l-14.418,-11.213c-1.027,-0.796 -2.364,-1.077 -3.625,-0.762l-13.687,3.419c-3.712,0.927 -7.65,-0.164 -10.356,-2.869l-15.349,-15.356c-2.708,-2.704 -3.801,-6.643 -2.875,-10.356l3.425,-13.687c0.315,-1.26 0.033,-2.598 -0.763,-3.625l-11.212,-14.418Zm-11.062,-5.106c2.044,-2.045 4.821,-3.196 7.713,-3.196c3.365,0 6.547,1.558 8.611,4.215l11.213,14.412c2.056,2.643 2.781,6.087 1.968,9.337l-3.418,13.687c-0.36,1.44 0.063,2.968 1.112,4.018l15.356,15.356c1.052,1.051 2.582,1.474 4.025,1.113l13.681,-3.419c3.247,-0.812 6.694,-0.085 9.337,1.969l14.412,11.212c5.181,4.031 5.656,11.687 1.018,16.318l-6.462,6.462c-4.625,4.625 -11.537,6.657 -17.98,4.388c-16.492,-5.803 -31.467,-15.245 -43.812,-27.624c-12.378,-12.343 -21.82,-27.316 -27.624,-43.805c-2.262,-6.437 -0.231,-13.356 4.394,-17.981l6.462,-6.462l-0.006,-0Z" style="fill:#293241;fill-rule:nonzero;stroke:#293241;stroke-width:1.67px;"/></svg>