<?xml version="1.0" encoding="UTF-8" standalone="no"?><!DOCTYPE svg PUBLIC "-//W3C//DTD SVG 1.1//EN" "http://www.w3.org/Graphics/SVG/1.1/DTD/svg11.dtd">
<svg width="100%" height="100%" viewBox="0 0 209 209" version="1.1"
    xmlns="http://www.w3.org/2000/svg"
    xmlns:xlink="http://www.w3.org/1999/xlink" xml:space="preserve"
    xmlns:serif="http://www.serif.com/" style="fill-rule:evenodd;clip-rule:evenodd;stroke-linecap:round;stroke-linejoin:round;stroke-miterlimit:2.613;">
    <path id="residential-home-sales-icon" serif:id="residential home sales icon" d="M208.333,0c0,0 -105.857,0 -166.657,0c-11.053,-0 -21.654,4.391 -29.469,12.207c-7.816,7.815 -12.207,18.416 -12.207,29.469c0,36.371 0,88.865 0,125.177c0,22.909 18.571,41.48 41.48,41.48l125.077,0c11.079,0 21.706,-4.401 29.54,-12.236c7.835,-7.834 12.236,-18.461 12.236,-29.54c0,-60.816 0,-166.557 0,-166.557Z" style="fill:#293241;"/>
    <clipPath id="_clip1">
        <path d="M208.333,0c0,0 -105.857,0 -166.657,0c-11.053,-0 -21.654,4.391 -29.469,12.207c-7.816,7.815 -12.207,18.416 -12.207,29.469c0,36.371 0,88.865 0,125.177c0,22.909 18.571,41.48 41.48,41.48l125.077,0c11.079,0 21.706,-4.401 29.54,-12.236c7.835,-7.834 12.236,-18.461 12.236,-29.54c0,-60.816 0,-166.557 0,-166.557Z"/>
    </clipPath>
    <g clip-path="url(#_clip1)">
        <g>
            <path d="M29.078,46.726c-0,-6.363 5.161,-11.524 11.525,-11.524l132.888,-0c3.185,-0 5.765,2.579 5.765,5.764l-0,0.65c-0,3.185 -2.58,5.764 -5.765,5.764l-126.474,-0c-3.182,-0 -5.761,2.579 -5.761,5.761l0,116.85c0,1.734 -1.407,3.141 -3.141,3.141l-5.896,-0c-1.734,-0 -3.141,-1.407 -3.141,-3.141l-0,-123.265Z" style="fill:none;fill-rule:nonzero;stroke:#fff;stroke-width:4.71px;"/>
            <path d="M56.594,134.76l-0,-67.338c-0,-3.182 2.579,-5.761 5.761,-5.761l103.33,-0c3.182,-0 5.764,2.579 5.764,5.761l0,67.338c0,3.182 -2.582,5.761 -5.764,5.761l-103.33,0c-3.182,0 -5.761,-2.579 -5.761,-5.761Z" style="fill:none;fill-rule:nonzero;stroke:#fff;stroke-width:4.71px;"/>
            <rect x="74.177" y="47.379" width="9.731" height="14.28" style="fill:none;stroke:#fff;stroke-width:4.71px;"/>
            <rect x="144.131" y="47.379" width="9.731" height="14.28" style="fill:none;stroke:#fff;stroke-width:4.71px;"/>
            <path d="M163.6,97.024l-8.676,32.381l-90.483,-24.245l8.677,-32.38l90.482,24.244Z" style="fill:none;stroke:#fff;stroke-width:4.71px;"/>
            <path d="M86.649,83.721c-0.835,-0.22 -1.683,-0.336 -2.525,-0.336c-3.283,-0 -5.937,1.696 -6.616,4.216c-1.02,3.826 3.042,5.83 4.373,6.486c0.17,0.085 0.406,0.186 0.681,0.302c1.301,0.549 3.71,1.574 3.349,2.915c-0.178,0.679 -1.658,1.109 -2.886,0.773c-2.372,-0.635 -2.159,-2.3 -2.13,-2.457c0.072,-0.295 -0.104,-0.59 -0.393,-0.672l-4.348,-1.171c-0.147,-0.035 -0.297,-0.026 -0.42,0.056c-0.126,0.075 -0.22,0.195 -0.261,0.336c-0.66,2.478 0.902,6.829 6.373,8.299c0.902,0.242 1.819,0.364 2.733,0.364c3.384,0 6.095,-1.636 6.751,-4.074c1.247,-4.655 -2.972,-6.65 -5.236,-7.718l-0.358,-0.17c-0.151,-0.071 -0.359,-0.15 -0.588,-0.235c-0.779,-0.301 -2.397,-0.929 -2.224,-1.58c0.22,-0.789 1.407,-1.228 2.541,-0.924c1.79,0.481 2.152,1.244 2.149,1.386c-0.038,0.144 -0.019,0.295 0.06,0.421c0.071,0.129 0.191,0.22 0.332,0.261l4.144,1.102c0.282,0.059 0.597,-0.1 0.678,-0.393c0.685,-2.566 -1.219,-5.852 -6.179,-7.187" style="fill:#fff;fill-rule:nonzero;"/>
            <path d="M109.171,99.817c-0.528,1.985 -2.344,3.379 -4.407,3.379c-0.396,0 -0.792,-0.056 -1.172,-0.156c-2.444,-0.657 -3.901,-3.167 -3.248,-5.595c0.537,-1.998 2.353,-3.399 4.42,-3.399c0.402,0 0.803,0.057 1.196,0.16c1.163,0.308 2.14,1.059 2.746,2.111c0.619,1.068 0.782,2.312 0.465,3.5m-1.892,-10.543c-0.826,-0.219 -1.674,-0.335 -2.522,-0.335c-4.369,-0 -8.211,2.959 -9.344,7.184c-0.67,2.5 -0.321,5.104 0.967,7.337c1.294,2.237 3.386,3.836 5.889,4.502c0.823,0.22 1.668,0.329 2.514,0.329c4.359,0 8.191,-2.94 9.319,-7.155c0.673,-2.513 0.327,-5.129 -0.973,-7.376c-1.292,-2.233 -3.371,-3.822 -5.85,-4.486" style="fill:#fff;fill-rule:nonzero;"/>
            <path d="M130.95,109.706l-9.935,-2.66l3.263,-12.173c0.082,-0.295 -0.094,-0.6 -0.39,-0.681l-4.017,-1.077c-0.145,-0.026 -0.289,-0.019 -0.421,0.056c-0.129,0.076 -0.22,0.195 -0.261,0.336l-4.479,16.721c-0.038,0.144 -0.019,0.295 0.053,0.421c0.076,0.129 0.198,0.22 0.34,0.26l14.477,3.88c0.051,0.009 0.101,0.019 0.148,0.019c0.245,-0 0.471,-0.164 0.534,-0.409l1.081,-4.011c0.034,-0.144 0.012,-0.295 -0.057,-0.421c-0.075,-0.129 -0.195,-0.22 -0.336,-0.261" style="fill:#fff;fill-rule:nonzero;"/>
            <path d="M148.293,110.232c-0.474,1.769 -2.001,3.003 -3.713,3.003c-0.257,0 -0.511,-0.031 -0.738,-0.081l-3.769,-1.005l2.044,-7.627l3.77,1.014c0.886,0.236 1.631,0.836 2.095,1.694c0.481,0.892 0.591,1.96 0.311,3.002m4.351,-5.544c-1.181,-2.145 -3.182,-3.644 -5.783,-4.341l-7.923,-2.12c-0.323,-0.063 -0.606,0.1 -0.681,0.393l-4.479,16.71c-0.082,0.296 0.094,0.6 0.389,0.683l7.923,2.125c0.784,0.212 1.586,0.315 2.389,0.315c4.16,-0 7.819,-2.817 8.903,-6.851c0.647,-2.428 0.386,-4.881 -0.738,-6.914" style="fill:#fff;fill-rule:nonzero;"/>
        </g>
    </g>
</svg>