<?xml version="1.0" encoding="UTF-8" standalone="no"?><!DOCTYPE svg PUBLIC "-//W3C//DTD SVG 1.1//EN" "http://www.w3.org/Graphics/SVG/1.1/DTD/svg11.dtd"><svg width="100%" height="100%" viewBox="0 0 211 180" version="1.1" xmlns="http://www.w3.org/2000/svg" xmlns:xlink="http://www.w3.org/1999/xlink" xml:space="preserve" xmlns:serif="http://www.serif.com/" style="fill-rule:evenodd;clip-rule:evenodd;stroke-linecap:round;stroke-linejoin:round;stroke-miterlimit:2.613;"><path d="M58.959,123.454c-0,-7.955 -12.596,-12.463 -20.075,-6.559c-4.592,3.617 -4.588,9.496 -0,13.117c2.529,1.996 5.296,2.317 8.316,2.717c2.838,0.383 5.942,0.845 8.317,2.72c4.592,3.621 4.592,9.496 0,13.121c-7.479,5.9 -20.075,1.392 -20.075,-6.562" style="fill:none;fill-rule:nonzero;stroke:#fff;stroke-width:6.25px;"/><path d="M47.201,109.729l0,46.005" style="fill:none;fill-rule:nonzero;stroke:#fff;stroke-width:6.25px;"/><ellipse cx="47.2" cy="132.731" rx="44.075" ry="44.077" style="fill:none;stroke:#fff;stroke-width:6.25px;"/><path d="M38.44,64.519c-0,-24.325 19.725,-44.05 44.05,-44.05" style="fill:none;fill-rule:nonzero;stroke:#fff;stroke-width:6.25px;"/><path d="M67.565,9.599l14.929,10.87l-10.871,14.925" style="fill:none;fill-rule:nonzero;stroke:#fff;stroke-width:6.25px;"/><path d="M166.829,111.202c0,24.325 -19.725,44.054 -44.05,44.054" style="fill:none;fill-rule:nonzero;stroke:#fff;stroke-width:6.25px;"/><path d="M137.704,166.123l-14.929,-10.867l10.871,-14.929" style="fill:none;fill-rule:nonzero;stroke:#fff;stroke-width:6.25px;"/><path d="M190.053,82.775l-66.592,0l-0,-33.762c-0,-2.284 -1.85,-4.134 -4.133,-4.134l-12.792,0l45.187,-39.879c2.867,-2.529 7.175,-2.496 10,0.075l14.009,12.738l-0,-9.363l14.987,0l0,19.384c0,2.225 0.992,4.337 2.7,5.758l13.559,11.287l-12.792,0c-2.284,0 -4.133,1.85 -4.133,4.134l-0,33.762Z" style="fill:none;fill-rule:nonzero;stroke:#fff;stroke-width:6.25px;"/><path d="M110.402,82.775l92.708,0" style="fill:none;fill-rule:nonzero;stroke:#fff;stroke-width:6.25px;"/></svg>