<?xml version="1.0" encoding="UTF-8" standalone="no"?><!DOCTYPE svg PUBLIC "-//W3C//DTD SVG 1.1//EN" "http://www.w3.org/Graphics/SVG/1.1/DTD/svg11.dtd"><svg width="100%" height="100%" viewBox="0 0 155 143" version="1.1" xmlns="http://www.w3.org/2000/svg" xmlns:xlink="http://www.w3.org/1999/xlink" xml:space="preserve" xmlns:serif="http://www.serif.com/" style="fill-rule:evenodd;clip-rule:evenodd;stroke-linecap:round;stroke-linejoin:round;stroke-miterlimit:2.613;"><g><path d="M2.356,13.881c-0,-6.364 5.161,-11.525 11.525,-11.525l132.888,-0c3.186,-0 5.765,2.579 5.765,5.764l-0,0.65c-0,3.185 -2.579,5.764 -5.765,5.764l-126.474,0c-3.182,0 -5.761,2.579 -5.761,5.761l0,116.85c0,1.734 -1.407,3.141 -3.141,3.141l-5.896,-0c-1.734,-0 -3.141,-1.407 -3.141,-3.141l-0,-123.264Z" style="fill:none;fill-rule:nonzero;stroke:#fff;stroke-width:4.71px;"/><path d="M29.872,101.915l0,-67.339c0,-3.182 2.579,-5.761 5.761,-5.761l103.33,0c3.182,0 5.764,2.579 5.764,5.761l0,67.339c0,3.182 -2.582,5.761 -5.764,5.761l-103.33,-0c-3.182,-0 -5.761,-2.579 -5.761,-5.761Z" style="fill:none;fill-rule:nonzero;stroke:#fff;stroke-width:4.71px;"/><rect x="47.455" y="14.533" width="9.731" height="14.28" style="fill:none;stroke:#fff;stroke-width:4.71px;"/><rect x="117.409" y="14.533" width="9.731" height="14.28" style="fill:none;stroke:#fff;stroke-width:4.71px;"/><path d="M136.878,64.179l-8.676,32.38l-90.483,-24.244l8.677,-32.381l90.482,24.245Z" style="fill:none;stroke:#fff;stroke-width:4.71px;"/><path d="M59.927,50.875c-0.835,-0.22 -1.683,-0.336 -2.525,-0.336c-3.283,0 -5.937,1.696 -6.615,4.216c-1.021,3.826 3.041,5.83 4.372,6.486c0.17,0.086 0.406,0.186 0.682,0.302c1.3,0.55 3.709,1.574 3.348,2.915c-0.178,0.679 -1.658,1.109 -2.886,0.773c-2.372,-0.635 -2.159,-2.299 -2.13,-2.457c0.072,-0.295 -0.104,-0.59 -0.393,-0.672l-4.347,-1.171c-0.147,-0.035 -0.298,-0.026 -0.421,0.056c-0.126,0.076 -0.22,0.195 -0.261,0.336c-0.66,2.479 0.902,6.829 6.373,8.299c0.902,0.242 1.82,0.365 2.733,0.365c3.384,-0 6.095,-1.637 6.751,-4.074c1.247,-4.656 -2.972,-6.651 -5.236,-7.719l-0.358,-0.169c-0.151,-0.072 -0.358,-0.151 -0.588,-0.236c-0.779,-0.301 -2.397,-0.929 -2.224,-1.58c0.22,-0.788 1.407,-1.228 2.541,-0.923c1.791,0.481 2.152,1.244 2.149,1.385c-0.038,0.144 -0.019,0.295 0.06,0.421c0.072,0.129 0.191,0.22 0.332,0.261l4.144,1.102c0.282,0.06 0.597,-0.1 0.678,-0.393c0.685,-2.566 -1.219,-5.851 -6.179,-7.187" style="fill:#fff;fill-rule:nonzero;"/><path d="M82.449,66.971c-0.528,1.985 -2.344,3.38 -4.407,3.38c-0.396,-0 -0.792,-0.057 -1.172,-0.157c-2.444,-0.657 -3.901,-3.166 -3.248,-5.595c0.537,-1.998 2.353,-3.398 4.42,-3.398c0.402,-0 0.804,0.056 1.196,0.16c1.163,0.307 2.14,1.058 2.746,2.11c0.619,1.069 0.782,2.313 0.465,3.5m-1.891,-10.542c-0.827,-0.22 -1.675,-0.336 -2.523,-0.336c-4.369,0 -8.211,2.959 -9.344,7.184c-0.67,2.5 -0.321,5.105 0.967,7.338c1.294,2.236 3.386,3.835 5.889,4.501c0.823,0.22 1.669,0.329 2.514,0.329c4.359,0 8.191,-2.94 9.319,-7.155c0.673,-2.513 0.327,-5.129 -0.973,-7.376c-1.291,-2.233 -3.371,-3.822 -5.849,-4.485" style="fill:#fff;fill-rule:nonzero;"/><path d="M104.228,76.861l-9.935,-2.661l3.263,-12.172c0.082,-0.296 -0.094,-0.6 -0.389,-0.682l-4.018,-1.077c-0.145,-0.026 -0.289,-0.019 -0.421,0.056c-0.129,0.076 -0.22,0.195 -0.26,0.337l-4.48,16.72c-0.038,0.144 -0.019,0.295 0.053,0.421c0.076,0.129 0.198,0.22 0.34,0.261l14.477,3.879c0.051,0.009 0.101,0.019 0.148,0.019c0.245,0 0.471,-0.164 0.534,-0.409l1.081,-4.011c0.034,-0.144 0.012,-0.295 -0.057,-0.421c-0.075,-0.129 -0.195,-0.22 -0.336,-0.26" style="fill:#fff;fill-rule:nonzero;"/><path d="M121.571,77.387c-0.474,1.768 -2,3.002 -3.712,3.002c-0.258,0 -0.512,-0.03 -0.739,-0.081l-3.769,-1.005l2.045,-7.627l3.769,1.015c0.886,0.235 1.631,0.835 2.095,1.693c0.481,0.892 0.591,1.96 0.311,3.003m4.351,-5.544c-1.181,-2.146 -3.182,-3.645 -5.783,-4.342l-7.923,-2.12c-0.323,-0.063 -0.606,0.1 -0.681,0.393l-4.479,16.711c-0.082,0.295 0.094,0.6 0.389,0.682l7.923,2.126c0.784,0.211 1.586,0.314 2.39,0.314c4.159,0 7.818,-2.817 8.902,-6.85c0.647,-2.429 0.386,-4.882 -0.738,-6.914" style="fill:#fff;fill-rule:nonzero;"/></g></svg>